<svg width="35" height="35" viewBox="0 0 35 35" fill="none" xmlns="http://www.w3.org/2000/svg">
<path d="M10.2523 0.122391C8.39031 0.210242 7.11875 0.507393 6.00714 0.944194C4.85668 1.39255 3.88157 1.9942 2.91136 2.9679C1.94115 3.9416 1.34369 4.91741 0.898487 6.06961C0.467633 7.18367 0.17573 8.45627 0.0934793 10.3193C0.0112285 12.1824 -0.00697169 12.7812 0.0021284 17.5336C0.0112285 22.2859 0.0322287 22.8816 0.12253 24.7485C0.211431 26.6101 0.507533 27.8813 0.944338 28.9933C1.39339 30.1437 1.99435 31.1185 2.96841 32.0891C3.94247 33.0596 4.91758 33.6557 6.07259 34.1016C7.1856 34.5317 8.45856 34.825 10.3213 34.9066C12.184 34.9881 12.7836 35.007 17.5345 34.9979C22.2855 34.9888 22.8836 34.9678 24.7502 34.8793C26.6167 34.7907 27.8813 34.4925 28.9936 34.0578C30.1441 33.6077 31.1195 33.0078 32.0894 32.0334C33.0593 31.059 33.6564 30.0825 34.1012 28.9296C34.5324 27.8166 34.8254 26.5436 34.9062 24.6823C34.9878 22.8144 35.007 22.218 34.9979 17.4664C34.9888 12.7147 34.9675 12.119 34.8789 10.2528C34.7904 8.38662 34.4939 7.11927 34.0575 6.00661C33.6077 4.85616 33.0075 3.8821 32.0338 2.91085C31.06 1.9396 30.0828 1.34285 28.9303 0.899044C27.8166 0.468192 26.5443 0.174541 24.6816 0.0940411C22.8189 0.0135409 22.2193 -0.0071092 17.4666 0.00199083C12.7139 0.0110909 12.1189 0.0313909 10.2523 0.122391ZM10.4567 31.7583C8.75047 31.6841 7.82401 31.4006 7.2066 31.1633C6.38899 30.8483 5.80659 30.4675 5.19128 29.8581C4.57598 29.2488 4.19797 28.6643 3.87877 27.8484C3.63902 27.231 3.35026 26.3056 3.27046 24.5994C3.18366 22.7552 3.16546 22.2015 3.15531 17.5294C3.14516 12.8572 3.16301 12.3042 3.24386 10.4593C3.31666 8.75447 3.60191 7.82697 3.83887 7.20992C4.15387 6.39126 4.53327 5.80991 5.14403 5.19496C5.75479 4.58001 6.33754 4.20131 7.1541 3.8821C7.77081 3.6413 8.69622 3.355 10.4018 3.2738C12.2474 3.1863 12.8004 3.1688 17.4719 3.15865C22.1434 3.1485 22.6978 3.166 24.544 3.2472C26.2489 3.3214 27.1768 3.60385 27.7931 3.8422C28.6111 4.15721 29.1931 4.53556 29.8081 5.14736C30.423 5.75916 30.8021 6.33981 31.1213 7.15812C31.3624 7.77307 31.6487 8.69812 31.7292 10.4047C31.8171 12.2503 31.837 12.8036 31.8454 17.4748C31.8539 22.1459 31.8374 22.7006 31.7565 24.5448C31.682 26.251 31.3992 27.1778 31.1615 27.7959C30.8465 28.6132 30.4668 29.1959 29.8557 29.8105C29.2446 30.4251 28.6625 30.8038 27.8456 31.123C27.2296 31.3635 26.3031 31.6505 24.599 31.7317C22.7534 31.8185 22.2004 31.8367 17.5272 31.8469C12.8539 31.857 12.3027 31.8381 10.4571 31.7583M24.7232 8.14687C24.7239 8.56224 24.8478 8.96808 25.0791 9.31305C25.3105 9.65802 25.639 9.92664 26.023 10.0849C26.407 10.2432 26.8294 10.284 27.2366 10.2023C27.6439 10.1205 28.0177 9.91982 28.3109 9.62557C28.6041 9.33132 28.8034 8.95674 28.8837 8.54919C28.964 8.14165 28.9216 7.71946 28.7619 7.33601C28.6022 6.95256 28.3324 6.62508 27.9865 6.39499C27.6407 6.1649 27.2344 6.04253 26.819 6.04336C26.2622 6.04447 25.7286 6.2667 25.3356 6.66116C24.9426 7.05563 24.7223 7.59003 24.7232 8.14687ZM8.51456 17.5175C8.52437 22.4805 12.555 26.4946 17.517 26.4852C22.479 26.4757 26.496 22.4455 26.4865 17.4825C26.4771 12.5194 22.4454 8.50422 17.4827 8.51402C12.52 8.52382 8.50511 12.5551 8.51456 17.5175ZM11.6667 17.5112C11.6644 16.3574 12.0043 15.2289 12.6434 14.2683C13.2825 13.3077 14.1921 12.5582 15.2571 12.1146C16.3222 11.671 17.4949 11.5531 18.6269 11.776C19.759 11.9988 20.7995 12.5524 21.6169 13.3666C22.4344 14.1808 22.992 15.2191 23.2193 16.3502C23.4467 17.4814 23.3335 18.6545 22.8941 19.7213C22.4547 20.7881 21.7088 21.7006 20.7507 22.3435C19.7927 22.9864 18.6655 23.3308 17.5118 23.3331C16.7457 23.3347 15.9868 23.1854 15.2784 22.8936C14.57 22.6019 13.926 22.1735 13.3833 21.6329C12.8405 21.0922 12.4095 20.45 12.115 19.7428C11.8204 19.0355 11.6681 18.2772 11.6667 17.5112Z" fill="black"/>
</svg>
