<svg width="77" height="20" viewBox="0 0 77 20" fill="none" xmlns="http://www.w3.org/2000/svg">
<path d="M6.45792 1.7376e-06C5.60968 -0.000636032 4.76965 0.174298 3.98586 0.514798C3.20208 0.855297 2.48992 1.35468 1.89013 1.98439C1.29033 2.61409 0.814669 3.36177 0.490344 4.18464C0.166019 5.00751 -0.000605819 5.88944 1.65506e-06 6.77998C1.65506e-06 11.8648 6.45792 20 6.45792 20C6.45792 20 12.9158 11.8648 12.9158 6.77998C12.9164 5.88944 12.7498 5.00751 12.4255 4.18464C12.1012 3.36177 11.6255 2.61409 11.0257 1.98439C10.4259 1.35468 9.71376 0.855297 8.92997 0.514798C8.14619 0.174298 7.30615 -0.000636032 6.45792 1.7376e-06Z" fill="#EB0303"/>
<path d="M4.76842 5.96756C5.21349 6.6444 5.57494 7.37782 5.8441 8.15022C5.56421 8.28562 4.90933 8.61868 4.48968 8.87373C4.23461 8.08652 3.88532 7.33653 3.4502 6.64176L4.76842 5.96756Z" fill="#EEF2E8"/>
<path d="M5.70939 12.3772L5.67628 12.3251C5.4209 11.9038 5.10299 11.5282 4.73458 11.2123L4.64526 11.1355L4.75306 11.0919C7.07382 10.1521 8.08943 8.59881 8.14872 5.89676V5.81229L9.63404 6.13847C9.75146 6.16555 9.84463 6.18738 9.84463 6.3143C9.84463 6.41211 9.75839 6.47598 9.6606 6.50629C9.204 9.86556 7.77104 11.273 5.76098 12.3489L5.70939 12.3772Z" fill="#EEF2E8"/>
<path d="M21.3915 7.93729C21.2459 7.74914 21.0519 7.60885 20.8325 7.53309C20.6187 7.44997 20.3929 7.40569 20.1649 7.40214C20.037 7.40274 19.9096 7.41806 19.7849 7.44781C19.6563 7.47761 19.5321 7.52547 19.4157 7.59009C19.3038 7.65105 19.2071 7.73884 19.1335 7.84635C19.059 7.96015 19.021 8.09593 19.0249 8.23397C19.0198 8.34263 19.041 8.45088 19.0866 8.54858C19.1322 8.64628 19.2007 8.73023 19.2856 8.79257C19.4877 8.93629 19.7091 9.04772 19.9424 9.1232C20.2065 9.21428 20.4906 9.30549 20.7948 9.39684C21.0939 9.4859 21.3804 9.61625 21.6468 9.78446C21.9119 9.95267 22.1366 10.1827 22.3036 10.4566C22.4921 10.7985 22.5824 11.1902 22.5638 11.5848C22.5725 11.9897 22.4908 12.3911 22.3251 12.7569C22.173 13.0823 21.952 13.3668 21.6791 13.5888C21.3975 13.8144 21.0769 13.9808 20.7351 14.0786C19.9048 14.3155 19.0261 14.2873 18.2111 13.9978C17.7673 13.8273 17.3612 13.5636 17.0176 13.223L18.2222 11.8325C18.3938 12.0747 18.6193 12.269 18.879 12.3984C19.1343 12.5292 19.4146 12.5973 19.6987 12.5977C19.8393 12.5972 19.9795 12.58 20.1164 12.5463C20.2496 12.5152 20.3775 12.4633 20.496 12.3923C20.6036 12.3276 20.6957 12.238 20.7655 12.1304C20.8357 12.0191 20.8717 11.8879 20.8687 11.7545C20.8725 11.6431 20.8502 11.5323 20.8039 11.432C20.7575 11.3316 20.6884 11.2448 20.6027 11.1789C20.399 11.024 20.1738 10.903 19.9351 10.82C19.6674 10.7214 19.378 10.6226 19.0669 10.5237C18.763 10.4284 18.4713 10.2944 18.1984 10.1248C17.932 9.95907 17.704 9.73335 17.5308 9.46394C17.3401 9.13956 17.2474 8.76223 17.2647 8.3815C17.2564 7.98644 17.3404 7.59525 17.5092 7.24207C17.6667 6.92206 17.8889 6.64203 18.1602 6.42156C18.4411 6.19634 18.7596 6.02827 19.0993 5.92601C19.4552 5.81571 19.8245 5.76002 20.1957 5.7607C20.6223 5.75948 21.0467 5.82473 21.455 5.95431C21.8613 6.08417 22.2356 6.30588 22.5515 6.60385L21.3915 7.93729Z" fill="#131313"/>
<path d="M24.1702 9.99983C24.1616 9.39922 24.2663 8.80276 24.4782 8.24481C24.6723 7.73938 24.9663 7.28296 25.3409 6.90571C25.719 6.53154 26.166 6.24266 26.6545 6.0569C27.7297 5.66182 28.9008 5.66182 29.9759 6.0569C30.4644 6.24273 30.9114 6.5316 31.2895 6.90571C31.664 7.28301 31.9581 7.73942 32.1523 8.24481C32.5648 9.37475 32.5648 10.6249 32.1523 11.7548C31.9582 12.2603 31.6641 12.7167 31.2895 13.0939C30.9115 13.4681 30.4644 13.757 29.9759 13.9428C28.9008 14.3378 27.7297 14.3378 26.6545 13.9428C26.166 13.7571 25.7189 13.4682 25.3409 13.0939C24.9663 12.7167 24.6722 12.2603 24.4782 11.7548C24.2662 11.1969 24.1616 10.6004 24.1702 9.99983ZM25.9288 9.99983C25.9247 10.3552 25.9817 10.7085 26.0971 11.0427C26.2028 11.3486 26.3671 11.6285 26.5799 11.8652C26.7926 12.0989 27.0497 12.2833 27.3345 12.4064C27.9659 12.6644 28.6665 12.6644 29.2979 12.4064C29.5827 12.2833 29.8398 12.0989 30.0525 11.8652C30.265 11.629 30.4294 11.3498 30.5357 11.0447C30.76 10.3713 30.76 9.638 30.5357 8.96468C30.4303 8.65742 30.2658 8.3762 30.0525 8.1385C29.8398 7.90475 29.5827 7.72039 29.2979 7.59729C28.6665 7.33926 27.9659 7.33926 27.3345 7.59729C27.0497 7.72039 26.7926 7.90475 26.5799 8.1385C26.3663 8.37603 26.2018 8.65729 26.0967 8.96468C25.9826 9.29651 25.9257 9.64705 25.9288 9.99983Z" fill="#131313"/>
<path d="M34.4385 5.96561H36.1325V12.3923H39.2694V14.0333H34.4385V5.96561Z" fill="#131313"/>
<path d="M40.5496 9.99985C40.5411 9.39925 40.6457 8.80281 40.8576 8.24483C41.0517 7.73944 41.3458 7.28304 41.7203 6.90573C42.0984 6.5316 42.5455 6.24273 43.0339 6.05692C44.1092 5.66181 45.2804 5.66181 46.3557 6.05692C46.8441 6.24278 47.2912 6.53165 47.6693 6.90573C48.0439 7.28293 48.338 7.73936 48.532 8.24483C48.9446 9.37477 48.9446 10.6249 48.532 11.7549C48.3381 12.2604 48.044 12.7168 47.6693 13.094C47.2912 13.4681 46.8442 13.757 46.3557 13.9428C45.2804 14.3379 44.1092 14.3379 43.0339 13.9428C42.5454 13.757 42.0983 13.4682 41.7203 13.094C41.3457 12.7167 41.0517 12.2603 40.8576 11.7549C40.6457 11.1969 40.541 10.6004 40.5496 9.99985ZM42.3082 9.99985C42.3041 10.3553 42.3611 10.7085 42.4765 11.0427C42.5826 11.3479 42.747 11.6271 42.9596 11.8632C43.1724 12.0969 43.4294 12.2813 43.7142 12.4044C44.3456 12.6624 45.0463 12.6624 45.6777 12.4044C45.9625 12.2813 46.2195 12.097 46.4323 11.8632C46.6448 11.627 46.8092 11.3478 46.9155 11.0427C47.1398 10.3693 47.1398 9.63601 46.9155 8.96268C46.8101 8.65541 46.6456 8.37419 46.4323 8.13651C46.2195 7.90274 45.9625 7.71838 45.6777 7.59529C45.0463 7.3373 44.3456 7.3373 43.7142 7.59529C43.4294 7.71839 43.1724 7.90275 42.9596 8.13651C42.7462 8.37408 42.5817 8.65534 42.4765 8.96268C42.362 9.29513 42.305 9.64637 42.3082 9.99985Z" fill="#131313"/>
<path d="M52.2394 7.53833H50.0449V5.96561H56.1236V7.53833H53.9291V14.0342H52.2352L52.2394 7.53833Z" fill="#131313"/>
<path d="M57.3306 9.99983C57.322 9.39922 57.4266 8.80276 57.6386 8.24481C57.8327 7.73938 58.1267 7.28296 58.5013 6.90571C58.8793 6.53149 59.3264 6.24261 59.8149 6.0569C60.8901 5.66182 62.0612 5.66182 63.1363 6.0569C63.6248 6.24271 64.0718 6.53158 64.4499 6.90571C64.8246 7.28289 65.1187 7.73933 65.3127 8.24481C65.7252 9.37474 65.7252 10.6249 65.3127 11.7548C65.1188 12.2603 64.8249 12.7167 64.4503 13.0939C64.0723 13.4681 63.6252 13.757 63.1367 13.9428C62.0615 14.3378 60.8905 14.3378 59.8153 13.9428C59.3268 13.7571 58.8797 13.4682 58.5017 13.0939C58.1271 12.7167 57.833 12.2603 57.6389 11.7548C57.4269 11.1969 57.3221 10.6005 57.3306 9.99983ZM59.0892 9.99983C59.0851 10.3552 59.1419 10.7084 59.2571 11.0427C59.3632 11.3479 59.5276 11.6271 59.7403 11.8632C59.953 12.0969 60.2101 12.2813 60.4948 12.4044C61.1263 12.6624 61.8269 12.6624 62.4583 12.4044C62.7431 12.2813 63.0001 12.0969 63.2129 11.8632C63.4255 11.627 63.5899 11.3478 63.6961 11.0427C63.9204 10.3693 63.9204 9.63598 63.6961 8.96266C63.5908 8.65536 63.4263 8.37412 63.2129 8.13648C63.0001 7.90273 62.7431 7.71837 62.4583 7.59527C61.8269 7.33723 61.1263 7.33723 60.4948 7.59527C60.2101 7.71835 59.953 7.90272 59.7403 8.13648C59.5268 8.37407 59.3623 8.65532 59.2571 8.96266C59.1429 9.29516 59.086 9.64638 59.0892 9.99983Z" fill="#131313"/>
<path d="M67.5334 5.96558H70.5075C70.8814 5.96425 71.2544 6.00491 71.6201 6.08684C71.9495 6.15685 72.2631 6.29226 72.5441 6.48578C72.8118 6.67597 73.0286 6.93492 73.174 7.23798C73.3404 7.60592 73.4204 8.01036 73.4073 8.41743C73.422 8.93748 73.2732 9.44815 72.9838 9.87051C72.6799 10.2823 72.235 10.5535 71.7437 10.6264L73.6976 14.0337H71.6679L70.0613 10.8086H69.2255V14.0337H67.5315L67.5334 5.96558ZM69.2274 9.30464H70.2261C70.378 9.30464 70.5389 9.29898 70.7089 9.28766C70.867 9.27906 71.0229 9.24441 71.1708 9.185C71.3059 9.1299 71.424 9.03726 71.5127 8.91701C71.6114 8.76684 71.6592 8.58618 71.6482 8.40409C71.6566 8.23187 71.615 8.06105 71.5289 7.9142C71.4521 7.79532 71.3475 7.69914 71.2251 7.6349C71.0918 7.56717 70.9487 7.52293 70.8016 7.50395C70.647 7.48143 70.4911 7.46995 70.335 7.46959H69.2278L69.2274 9.30464Z" fill="#131313"/>
<path d="M75.3059 5.96561H76.9999V14.0342H75.3059V5.96561Z" fill="#131313"/>
</svg>
